<svg width="123" height="120" viewBox="0 0 123 120" fill="none" xmlns="http://www.w3.org/2000/svg">
<g clip-path="url(#clip0_17_148)">
<path d="M87.8571 11.25C87.8571 8.26631 89.2456 5.40483 91.7171 3.29505C94.1885 1.18526 97.5405 0 101.036 0C104.531 0 107.883 1.18526 110.354 3.29505C112.826 5.40483 114.214 8.26631 114.214 11.25C114.214 14.2337 112.826 17.0952 110.354 19.205C107.883 21.3147 104.531 22.5 101.036 22.5C97.5405 22.5 94.1885 21.3147 91.7171 19.205C89.2456 17.0952 87.8571 14.2337 87.8571 11.25ZM56.1462 28.4297C54.6636 27.8438 52.9339 27.9844 51.6435 28.8281L40.4143 36.0234C36.5431 38.5078 31.0246 37.8281 28.1143 34.5234C25.204 31.2188 26.0002 26.5078 29.8714 24.0234L41.1007 16.8281C47.6076 12.6563 56.2835 11.9062 63.6415 14.8594L88.4612 24.8203C96.4507 28.0312 98.5647 36.9141 92.6344 42.5156L82.119 52.5H108.86C117.179 52.5 123.412 58.9922 121.792 65.9531L114.05 98.9766C113.089 103.031 108.476 105.68 103.699 104.859C98.9217 104.039 95.8466 100.102 96.8076 96.0234L103.507 67.5H84.2056C86.5667 72.0938 87.8571 77.1562 87.8571 82.5C87.8571 103.219 68.1991 120 43.9286 120C19.658 120 0 103.219 0 82.5C0 61.7812 19.658 45 43.9286 45C46.9761 45 49.9687 45.2578 52.8241 45.7734L67.7049 33.0703L56.1462 28.4297ZM43.9286 105C47.3898 105 50.8172 104.418 54.015 103.287C57.2128 102.157 60.1184 100.499 62.5659 98.4099C65.0134 96.3206 66.9548 93.8402 68.2794 91.1104C69.604 88.3806 70.2857 85.4547 70.2857 82.5C70.2857 79.5453 69.604 76.6194 68.2794 73.8896C66.9548 71.1598 65.0134 68.6794 62.5659 66.5901C60.1184 64.5008 57.2128 62.8434 54.015 61.7127C50.8172 60.582 47.3898 60 43.9286 60C40.4673 60 37.0399 60.582 33.8421 61.7127C30.6443 62.8434 27.7387 64.5008 25.2913 66.5901C22.8438 68.6794 20.9023 71.1598 19.5777 73.8896C18.2532 76.6194 17.5714 79.5453 17.5714 82.5C17.5714 85.4547 18.2532 88.3806 19.5777 91.1104C20.9023 93.8402 22.8438 96.3206 25.2913 98.4099C27.7387 100.499 30.6443 102.157 33.8421 103.287C37.0399 104.418 40.4673 105 43.9286 105Z" fill="black"/>
</g>
<defs>
<clipPath id="clip0_17_148">
<rect width="123" height="120" fill="white"/>
</clipPath>
</defs>
</svg>
